<svg width="1120" height="520" viewBox="0 0 1120 520" fill="none" xmlns="http://www.w3.org/2000/svg">
  <rect width="1120" height="520" fill="#F8FAFC"/>
  <rect x="360" y="54" width="180" height="412" rx="34" fill="#FFFFFF" stroke="#DBE2EA" stroke-width="2"/>
  <rect x="386" y="102" width="128" height="236" rx="20" fill="#F1F5F9"/>
  <rect x="404" y="126" width="92" height="18" rx="9" fill="#0891B2"/>
  <rect x="404" y="164" width="72" height="72" rx="18" fill="#7C3AED" fill-opacity="0.28"/>
  <rect x="404" y="258" width="92" height="12" rx="6" fill="#64748B"/>
  <rect x="404" y="286" width="68" height="12" rx="6" fill="#64748B"/>
  <rect x="580" y="86" width="210" height="348" rx="36" fill="#FFFFFF" stroke="#DBE2EA" stroke-width="2"/>
  <rect x="612" y="142" width="146" height="208" rx="22" fill="#F1F5F9"/>
  <rect x="636" y="172" width="96" height="96" rx="24" fill="#0891B2" fill-opacity="0.2"/>
  <rect x="636" y="294" width="98" height="14" rx="7" fill="#7C3AED"/>
  <circle cx="272" cy="160" r="84" fill="#7C3AED" fill-opacity="0.14"/>
  <circle cx="858" cy="352" r="96" fill="#0891B2" fill-opacity="0.12"/>
</svg>
